<svg xmlns="http://www.w3.org/2000/svg" viewBox="0 0 32 32" width="32" height="32">
  <!-- Background -->
  <rect width="32" height="32" rx="4" fill="#F5F5F5"/>
  
  <!-- Main "C" letter - bold and prominent -->
  <path d="M 6 6 Q 6 2 10 2 Q 18 2 26 6 Q 28 10 28 16 Q 28 22 26 26 Q 18 30 10 30 Q 6 30 6 26 Q 6 22 8 20" 
        fill="none" stroke="#333333" stroke-width="3" stroke-linecap="round"/>
  
  <!-- Guitar body integrated into C curve -->
  <ellipse cx="20" cy="16" rx="5" ry="7" fill="none" stroke="#333333" stroke-width="2"/>
  
  <!-- Guitar neck extending from body -->
  <line x1="20" y1="9" x2="20" y2="4" stroke="#333333" stroke-width="2"/>
  
  <!-- Treble clef integrated as soundhole -->
  <ellipse cx="20" cy="16" rx="2" ry="3" fill="none" stroke="#333333" stroke-width="1.5"/>
  
  <!-- Treble clef stem -->
  <line x1="20" y1="13" x2="20" y2="7" stroke="#333333" stroke-width="1"/>
  
  <!-- Treble clef curl -->
  <path d="M 20 7 Q 18 5 16 7 Q 18 9 20 7" fill="none" stroke="#333333" stroke-width="1"/>
</svg>
